<?xml version="1.0" encoding="UTF-8"?>
<svg width="100%" height="100%" version="1.1" viewBox="0 0 102.32 10.001" xml:space="preserve" xmlns="http://www.w3.org/2000/svg"><g transform="translate(-13.022 -138.5)"><g transform="translate(-70.683 -26.394)"><g transform="matrix(1.3057 0 0 1.3057 58.203 -41.21)" stroke-width=".7659"><g transform="translate(19.466 -131.35)" stroke-width=".7659"><g transform="translate(.065696 -.13925)" stroke-width=".7659"><path d="m2.9108 295.92q0.38192 0 0.68126-0.13419 0.30966-0.14451 0.52643-0.38191 0.21676-0.23741 0.33031-0.54707 0.11354-0.31999 0.11354-0.67094v-0.0206q0-0.36128-0.12386-0.68126-0.12386-0.31999-0.35095-0.55739-0.21676-0.23741-0.52643-0.3716-0.29934-0.14451-0.67094-0.14451t-0.68126 0.14451q-0.29934 0.13419-0.5161 0.3716-0.21676 0.22708-0.33031 0.54707-0.11354 0.31998-0.11354 0.67093v0.0206q0 0.36127 0.12386 0.68125 0.12387 0.30967 0.34063 0.5574 0.22709 0.2374 0.52643 0.38191 0.30966 0.13419 0.67094 0.13419zm-0.020645 1.0838q-0.61933 0-1.1561-0.21677-0.52643-0.22708-0.91866-0.609-0.38192-0.38192-0.59868-0.89802-0.21676-0.5161-0.21676-1.0941v-0.0206q0-0.58836 0.21676-1.1045 0.22709-0.5161 0.609-0.89802 0.39224-0.39224 0.91867-0.61932 0.53675-0.22709 1.1664-0.22709 0.62965 0 1.1561 0.22709 0.53675 0.21676 0.91867 0.609 0.39224 0.38192 0.609 0.89802 0.21676 0.50578 0.21676 1.0941v0.0206q0 0.57803-0.22709 1.0941-0.21676 0.5161-0.609 0.90834-0.38192 0.38192-0.91867 0.609-0.53675 0.2271-1.1664 0.2271z" fill="#ca2334"/><path d="m6.8398 289.34h1.249v2.9315q0.13419-0.19612 0.28902-0.36127 0.16515-0.17547 0.3716-0.30966 0.21676-0.13419 0.46449-0.20644 0.25805-0.0826 0.57804-0.0826 0.92899 0 1.4348 0.56772 0.50578 0.56771 0.50578 1.5277v3.4682h-1.249v-3.0966q0-0.63997-0.30966-0.9806-0.29934-0.35095-0.85673-0.35095-0.54707 0-0.8877 0.36127-0.34063 0.35095-0.34063 0.99092v3.076h-1.249z" fill="#505050"/><path d="m15.073 296.98q-0.58836 0-1.1974-0.20644-0.59868-0.20644-1.1148-0.609l0.55739-0.84641q0.44385 0.33031 0.89802 0.50578 0.46449 0.16515 0.8877 0.16515 0.40256 0 0.61932-0.15483 0.22709-0.16515 0.22709-0.43352v-0.0206q0-0.15483-0.10322-0.26837-0.0929-0.11355-0.26837-0.19612-0.16515-0.0826-0.39224-0.15483-0.21676-0.0723-0.45417-0.14451-0.29934-0.0826-0.609-0.19612-0.29934-0.11355-0.54707-0.28902-0.23741-0.1858-0.39224-0.45417-0.15483-0.26838-0.15483-0.66062v-0.0206q0-0.38192 0.14451-0.69158 0.15483-0.30966 0.41288-0.52643 0.26838-0.21676 0.61933-0.3303 0.36127-0.11355 0.76383-0.11355 0.5161 0 1.0425 0.16516 0.52643 0.16515 0.95995 0.45417l-0.49546 0.8877q-0.39224-0.23741-0.7948-0.3716-0.40256-0.14451-0.74319-0.14451-0.36127 0-0.56771 0.15484-0.19612 0.15483-0.19612 0.39223v0.0207q0 0.14451 0.10322 0.25805 0.10322 0.10322 0.26837 0.19612 0.17548 0.0826 0.39224 0.16515 0.22709 0.0723 0.46449 0.14451 0.29934 0.0929 0.59868 0.21677 0.29934 0.12386 0.53675 0.30966 0.24773 0.17547 0.40256 0.43353 0.15483 0.25805 0.15483 0.62964v0.0206q0 0.43353-0.15483 0.75351-0.15483 0.31999-0.43353 0.53675-0.26838 0.20644-0.63997 0.31998-0.3716 0.10322-0.7948 0.10322z" fill="#ca2334"/><path d="m21.035 295.92q0.38192 0 0.68126-0.13419 0.30966-0.14451 0.52643-0.38191 0.21676-0.23741 0.33031-0.54707 0.11354-0.31999 0.11354-0.67094v-0.0206q0-0.36128-0.12387-0.68126-0.12386-0.31999-0.35095-0.5574-0.21676-0.2374-0.52643-0.37159-0.29934-0.14451-0.67093-0.14451t-0.68126 0.14451q-0.29934 0.13419-0.5161 0.37159-0.21676 0.22709-0.33031 0.54708-0.11354 0.31998-0.11354 0.67093v0.0206q0 0.36127 0.12386 0.68125 0.12386 0.30967 0.34063 0.5574 0.22708 0.2374 0.52643 0.38191 0.30966 0.13419 0.67094 0.13419zm-0.020638 1.0838q-0.61933 0-1.1561-0.21677-0.52643-0.22708-0.91867-0.609-0.38192-0.38192-0.59868-0.89802-0.21676-0.5161-0.21676-1.0941v-0.0206q0-0.58836 0.21676-1.1045 0.22709-0.5161 0.609-0.89802 0.39224-0.39224 0.91867-0.61932 0.53675-0.22709 1.1664-0.22709 0.62965 0 1.1561 0.22709 0.53675 0.21676 0.91867 0.609 0.39224 0.38192 0.609 0.89802 0.21676 0.50578 0.21676 1.0941v0.0206q0 0.57803-0.22709 1.0941-0.21676 0.5161-0.609 0.90834-0.38192 0.38192-0.91866 0.609-0.53675 0.2271-1.1664 0.2271z" fill="#505050"/><path d="m24.964 291.43h1.249v0.82577q0.13419-0.1858 0.28902-0.35095t0.35095-0.29934q0.20644-0.13419 0.45417-0.20644 0.25805-0.0826 0.56772-0.0826 0.58836 0 0.99092 0.26837 0.41288 0.25806 0.62965 0.69158 0.33031-0.43352 0.77416-0.69158 0.45417-0.26837 1.0735-0.26837 0.89802 0 1.4038 0.54707 0.50578 0.53675 0.50578 1.538v3.4785h-1.249v-3.0966q0-0.65029-0.28902-0.99092t-0.81544-0.34063q-0.5161 0-0.84641 0.35095-0.31998 0.34063-0.31998 1.0012v3.076h-1.249v-3.1069q0-0.63997-0.28902-0.9806-0.28902-0.34063-0.81544-0.34063t-0.84641 0.36127q-0.31998 0.36128-0.31998 1.0012v3.0657h-1.249z" fill="#ca2334"/><path d="m38.317 293.77q-0.03096-0.29934-0.13419-0.5574-0.10322-0.26837-0.2787-0.45417-0.17548-0.19612-0.4232-0.30966-0.23741-0.11354-0.54707-0.11354-0.57804 0-0.95995 0.40256-0.3716 0.39224-0.45417 1.0322zm-1.2387 3.2308q-0.58836 0-1.1045-0.20644-0.50578-0.20644-0.8877-0.57804-0.3716-0.37159-0.58836-0.8877-0.21676-0.52643-0.21676-1.1561v-0.0206q0-0.58836 0.19612-1.1045t0.54707-0.89802q0.36127-0.39224 0.84641-0.609 0.48514-0.22709 1.0735-0.22709 0.65029 0 1.1354 0.23741 0.49546 0.23741 0.81544 0.63997 0.33031 0.40256 0.49546 0.93931 0.16515 0.52642 0.16515 1.1148 0 0.0826-0.01035 0.17548 0 0.0826-0.01035 0.17547h-4.005q0.10322 0.67094 0.52643 1.0322 0.43353 0.35095 1.0425 0.35095 0.46449 0 0.80512-0.16515 0.34063-0.16515 0.67094-0.48514l0.73287 0.65029q-0.39224 0.4645-0.93931 0.74319-0.53674 0.27865-1.2903 0.27865z" fill="#505050"/><path d="m21.035 295.92q0.38192 0 0.68126-0.13419 0.30966-0.14451 0.52643-0.38191 0.21676-0.23741 0.33031-0.54707 0.11354-0.31999 0.11354-0.67094v-0.0206q0-0.36128-0.12387-0.68126-0.12386-0.31999-0.35095-0.5574-0.21676-0.2374-0.52643-0.37159-0.29934-0.14451-0.67093-0.14451t-0.68126 0.14451q-0.29934 0.13419-0.5161 0.37159-0.21676 0.22709-0.33031 0.54708-0.11354 0.31998-0.11354 0.67093v0.0206q0 0.36127 0.12386 0.68125 0.12386 0.30967 0.34063 0.5574 0.22708 0.2374 0.52643 0.38191 0.30966 0.13419 0.67094 0.13419zm-0.020638 1.0838q-0.61933 0-1.1561-0.21677-0.52643-0.22708-0.91867-0.609-0.38192-0.38192-0.59868-0.89802-0.21676-0.5161-0.21676-1.0941v-0.0206q0-0.58836 0.21676-1.1045 0.22709-0.5161 0.609-0.89802 0.39224-0.39224 0.91867-0.61932 0.53675-0.22709 1.1664-0.22709 0.62965 0 1.1561 0.22709 0.53675 0.21676 0.91867 0.609 0.39224 0.38192 0.609 0.89802 0.21676 0.50578 0.21676 1.0941v0.0206q0 0.57803-0.22709 1.0941-0.21676 0.5161-0.609 0.90834-0.38192 0.38192-0.91866 0.609-0.53675 0.2271-1.1664 0.2271z" fill="#505050"/></g></g></g><g transform="matrix(.86124 0 0 .86124 15.066 -48.675)"><path d="m153.65 247.98c-3.1972 0-5.8064 2.6071-5.8064 5.8043s2.6092 5.8069 5.8064 5.8069c3.1972 0 5.8069-2.6097 5.8069-5.8069 0-2.0831-1.1079-3.9154-2.7642-4.9398l-1.681 0.97048c1.6518 0.56206 2.8319 2.1209 2.8319 3.9693 0 2.3256-1.8679 4.1956-4.1935 4.1956-2.3256 0-4.193-1.87-4.193-4.1956 0-2.3256 1.8674-4.193 4.193-4.193h5.1e-4v-1.6113z" color="#000000" style="-inkscape-stroke:none"/><g fill="none" stroke="#000" stroke-width="1.6127"><path d="m164.71 253.78a5 5 0 0 1-5 5 5 5 0 0 1-5-5" stop-color="#000000"/><path d="m170.91 253.78a5 5 0 0 1-5 5 5 5 0 0 1-5-5" stop-color="#000000"/><path d="m143.06 253.78a5 5 0 0 1 5-5 5 5 0 0 1 5 5" stop-color="#000000"/></g></g><g transform="matrix(.9757 0 0 .9757 -42.275 -57.245)"><circle cx="194.4" cy="232.8" r="2.229" fill="#59f" stop-color="#000000" style="font-variation-settings:normal"/><path transform="matrix(1.1395 0 0 1.1395 107.16 193.44)" d="m75.929 35.633v-2.194l1.9 1.097z" fill="#fff" stop-color="#000000" style="-inkscape-stroke:none;font-variation-settings:normal"/></g></g><g fill="#505050" stop-color="#000000" stroke-width=".27648px" aria-label="now"><path d="m82.26 139.77h0.5976v0.40499q0.06421-0.0938 0.13829-0.17286 0.07902-0.084 0.1778-0.14816 0.10372-0.0642 0.22225-0.0988 0.12347-0.0395 0.27658-0.0395 0.4445 0 0.68651 0.27164 0.24201 0.27163 0.24201 0.73095v1.6595h-0.59761v-1.4817q0-0.30621-0.14817-0.46919-0.14323-0.16793-0.40993-0.16793-0.26176 0-0.42474 0.17287-0.16298 0.16792-0.16298 0.47413v1.4718h-0.5976z" stop-color="#000000"/><path d="m86.571 141.92q0.18274 0 0.32597-0.0642 0.14817-0.0691 0.25188-0.18274 0.10372-0.1136 0.15804-0.26176 0.05433-0.15311 0.05433-0.32103v-0.01q0-0.17286-0.05927-0.32597-0.05927-0.1531-0.16792-0.2667-0.10372-0.11359-0.25188-0.1778-0.14323-0.0691-0.32103-0.0691t-0.32597 0.0691q-0.14323 0.0642-0.24694 0.1778-0.10372 0.10866-0.15804 0.26176-0.05433 0.15311-0.05433 0.32103v0.01q0 0.17286 0.05927 0.32597 0.05927 0.14816 0.16298 0.2667 0.10866 0.11359 0.25188 0.18274 0.14817 0.0642 0.32103 0.0642zm-0.0099 0.51859q-0.29633 0-0.55316-0.10372-0.25188-0.10866-0.43956-0.2914-0.18274-0.18274-0.28646-0.42968-0.10372-0.24694-0.10372-0.52352v-0.01q0-0.28152 0.10372-0.52846 0.10866-0.24695 0.2914-0.42968 0.18768-0.18768 0.43956-0.29634 0.25682-0.10865 0.55809-0.10865 0.30127 0 0.55316 0.10865 0.25682 0.10372 0.43956 0.2914 0.18768 0.18274 0.2914 0.42968 0.10372 0.24201 0.10372 0.52352v0.01q0 0.27658-0.10866 0.52352-0.10372 0.24695-0.2914 0.43463-0.18274 0.18273-0.43956 0.29139-0.25682 0.10866-0.55809 0.10866z" stop-color="#000000"/><path d="m88.349 139.77h0.61242l0.52352 1.7879 0.57785-1.7978h0.5087l0.58279 1.7978 0.5334-1.7879h0.5976l-0.85443 2.6275h-0.5334l-0.58279-1.7829-0.58773 1.7829h-0.5334z" stop-color="#000000"/></g><g transform="matrix(1.3057 0 0 1.3057 13.022 -239.28)" stroke-width=".1552" aria-label="STATS"><path d="m63.959 297q-0.43632 0-0.83493-0.14544-0.39861-0.15082-0.73797-0.45786l0.39861-0.47402q0.27472 0.23701 0.55482 0.36629 0.2801 0.12389 0.63562 0.12389 0.30704 0 0.4848-0.12928 0.18314-0.12928 0.18314-0.34474v-0.0108q0-0.10234-0.03771-0.17776-0.03232-0.0808-0.12928-0.15082-0.09157-0.07-0.25856-0.12928-0.1616-0.0592-0.42554-0.11851-0.30165-0.07-0.53866-0.15621-0.23162-0.0916-0.39322-0.21546-0.15621-0.12928-0.2424-0.31243-0.0808-0.18314-0.0808-0.4417v-0.0108q0-0.2424 0.09696-0.44171 0.09696-0.20469 0.26394-0.34474 0.17237-0.14544 0.40938-0.22624t0.51712-0.0808q0.41477 0 0.74336 0.12389 0.33397 0.11851 0.62485 0.35013l-0.35552 0.50096q-0.25856-0.18853-0.51173-0.28549-0.25317-0.10235-0.51173-0.10235-0.29088 0-0.45248 0.12928t-0.1616 0.31781v0.0108q0 0.10773 0.03771 0.19391 0.03771 0.0808 0.13467 0.15083 0.10235 0.0646 0.27472 0.12389 0.17776 0.0593 0.44709 0.12389 0.29626 0.0754 0.5225 0.16699 0.23162 0.0916 0.38245 0.22624 0.15083 0.12928 0.22624 0.30704 0.0808 0.17237 0.0808 0.40399v0.0108q0 0.26394-0.10235 0.47402-0.09696 0.21008-0.27472 0.35552-0.17776 0.14544-0.42554 0.22085-0.24778 0.07542-0.54405 0.07542z"/><path d="m66.608 293.79h-1.1958v-0.61407h3.0596v0.61407h-1.1958v3.1566h-0.66794z"/><path d="m71.051 295.45-0.65178-1.5082-0.6464 1.5082zm-0.94805-2.3001h0.61408l1.6591 3.7976h-0.70026l-0.38245-0.91034h-1.783l-0.38784 0.91034h-0.67872z"/><path d="m73.543 293.79h-1.1958v-0.61407h3.0596v0.61407h-1.1958v3.1566h-0.66794z"/><path d="m77.022 297q-0.43632 0-0.83493-0.14544-0.39861-0.15082-0.73797-0.45786l0.39861-0.47402q0.27472 0.23701 0.55482 0.36629 0.2801 0.12389 0.63562 0.12389 0.30704 0 0.4848-0.12928 0.18315-0.12928 0.18315-0.34474v-0.0108q0-0.10234-0.03771-0.17776-0.03232-0.0808-0.12928-0.15082-0.09157-0.07-0.25856-0.12928-0.1616-0.0592-0.42554-0.11851-0.30165-0.07-0.53866-0.15621-0.23162-0.0916-0.39322-0.21546-0.15621-0.12928-0.2424-0.31243-0.0808-0.18314-0.0808-0.4417v-0.0108q0-0.2424 0.09696-0.44171 0.09696-0.20469 0.26394-0.34474 0.17237-0.14544 0.40938-0.22624 0.23701-0.0808 0.51712-0.0808 0.41477 0 0.74336 0.12389 0.33397 0.11851 0.62485 0.35013l-0.35552 0.50096q-0.25856-0.18853-0.51173-0.28549-0.25317-0.10235-0.51173-0.10235-0.29088 0-0.45248 0.12928t-0.1616 0.31781v0.0108q0 0.10773 0.03771 0.19391 0.03771 0.0808 0.13467 0.15083 0.10235 0.0646 0.27472 0.12389 0.17776 0.0593 0.44709 0.12389 0.29626 0.0754 0.5225 0.16699 0.23162 0.0916 0.38245 0.22624 0.15083 0.12928 0.22624 0.30704 0.0808 0.17237 0.0808 0.40399v0.0108q0 0.26394-0.10235 0.47402-0.09696 0.21008-0.27472 0.35552-0.17776 0.14544-0.42554 0.22085-0.24779 0.07542-0.54405 0.07542z"/></g></g></svg>
